<svg width="256" height="256" viewBox="0 0 256 256" fill="none" xmlns="http://www.w3.org/2000/svg">
  <defs>
    <radialGradient id="bg" cx="0" cy="0" r="1" gradientUnits="userSpaceOnUse" gradientTransform="translate(128 128) rotate(90) scale(116)">
      <stop stop-color="#0A1F45"/>
      <stop offset="1" stop-color="#06112A"/>
    </radialGradient>
    <linearGradient id="ring" x1="44" y1="44" x2="212" y2="212" gradientUnits="userSpaceOnUse">
      <stop stop-color="#2F8BFF"/>
      <stop offset="1" stop-color="#42F3B3"/>
    </linearGradient>
    <linearGradient id="stroke" x1="88" y1="62" x2="171" y2="190" gradientUnits="userSpaceOnUse">
      <stop stop-color="#64E8FF"/>
      <stop offset="1" stop-color="#50E19B"/>
    </linearGradient>
    <linearGradient id="wave" x1="86" y1="146" x2="170" y2="190" gradientUnits="userSpaceOnUse">
      <stop stop-color="#34A7FF"/>
      <stop offset="1" stop-color="#6AF7B4"/>
    </linearGradient>
    <filter id="glow" x="24" y="24" width="208" height="208" filterUnits="userSpaceOnUse" color-interpolation-filters="sRGB">
      <feGaussianBlur stdDeviation="6" result="blur"/>
      <feMerge>
        <feMergeNode in="blur"/>
        <feMergeNode in="SourceGraphic"/>
      </feMerge>
    </filter>
  </defs>

  <rect x="16" y="16" width="224" height="224" rx="48" fill="#07142D"/>
  <g opacity="0.22">
    <path d="M32 80H224" stroke="#1D4C9C" stroke-width="1"/>
    <path d="M32 128H224" stroke="#1D4C9C" stroke-width="1"/>
    <path d="M32 176H224" stroke="#1D4C9C" stroke-width="1"/>
    <path d="M80 32V224" stroke="#1D4C9C" stroke-width="1"/>
    <path d="M128 32V224" stroke="#1D4C9C" stroke-width="1"/>
    <path d="M176 32V224" stroke="#1D4C9C" stroke-width="1"/>
  </g>

  <g filter="url(#glow)">
    <circle cx="128" cy="128" r="84" fill="url(#bg)" stroke="url(#ring)" stroke-width="6"/>
    <circle cx="128" cy="128" r="72" stroke="url(#ring)" stroke-opacity="0.65" stroke-width="3"/>

    <path
      d="M99 69H138C161.196 69 180 87.804 180 111C180 127.344 170.684 141.514 157.084 148.468C168.765 155.311 176 167.93 176 181V187H150V181C150 170.507 141.493 162 131 162H116V187H90V78C90 73.0294 94.0294 69 99 69Z"
      stroke="url(#stroke)"
      stroke-width="10"
      stroke-linejoin="round"
      fill="none"
    />

    <path
      d="M116 95H138C146.837 95 154 102.163 154 111C154 119.837 146.837 127 138 127H116V95Z"
      fill="url(#stroke)"
      fill-opacity="0.15"
      stroke="url(#stroke)"
      stroke-width="6"
      stroke-linejoin="round"
    />

    <path
      d="M91 156C106 146 122 149 136 162C149 173 163 176 177 170"
      stroke="url(#wave)"
      stroke-width="9"
      stroke-linecap="round"
      stroke-linejoin="round"
    />
    <path
      d="M88 173C103 163 119 166 133 179C145 190 159 193 172 187"
      stroke="url(#wave)"
      stroke-opacity="0.8"
      stroke-width="7"
      stroke-linecap="round"
      stroke-linejoin="round"
    />
  </g>
</svg>
